<svg style="display: none" xmlns="http://www.w3.org/2000/svg">
    <symbol viewbox="0 0 102 34" id="footer-logo">
      <path
        d="M19.22 21.381c-.1-2.685-.5-5.27-.5-7.956 0-2.187.4-4.375-.4-6.464 0-.199.1-.497.1-.696.2-.994-3.3-.497-3.8.497-.3.299-.5.597-.4.995 0 .1.1.199.1.298-.7 3.183-1.6 6.265-2.6 9.348-.4 1.194-.9 2.288-1.3 3.481-.6-1.094-1.2-2.188-1.6-3.381-1.4-3.381-2.6-6.862-4.3-10.144.2-1.492-3.2-1.392-3.9 0-.8 1.69-.7 3.381-.4 5.171.3 1.99.4 3.978.4 6.067 0 3.978.4 7.856.4 11.834-.4.398-.5.895-.1 1.392.2.2.4.398.6.498 1 .696 3.6.099 3.6-1.293 0-4.078-.3-8.155-.4-12.332v-1.193c.1.1.1.298.2.398.6 1.59 1.3 3.182 2.2 4.674.9 1.491 1.3 3.082 1.8 4.674-.2.199-.3.497-.2.696 0 .199.1.298.3.398.6.497 1.8.298 2.5 0 .3-.1.6-.299.8-.398.3-.2.9-.696.7-1.194 0-.099-.1-.198-.1-.298.5-1.293.7-2.585 1-3.878.3-1.393.8-2.785 1.3-4.078.1.597.1 1.194.2 1.89.2 2.585 0 5.072 0 7.558 0 .795.1 1.591.2 2.486.1.298.4 1.79.3 1.89-.8.497-.6 1.093.2 1.292.9.2 2.1-.1 2.8-.696 1.2-1.094.6-2.784.4-4.177-.5-2.386 0-4.972-.1-7.359ZM27.62 22.078c-.1-1.99-.8-3.879-.8-5.868 0-2.287.2-4.574-.2-6.862-.1-.696-4.1.1-3.9.995.3 2.088.2 4.177.2 6.364 0 1.99.5 3.879.7 5.868.3 2.088-.1 4.177.1 6.166.1.994.8 2.685.1 3.58-.4.497 1.5.298 1.6.298.8-.1 1.8-.398 2.3-.994.7-.796.2-2.387.1-3.382-.3-1.989-.1-4.176-.2-6.165ZM43.92 18.796c-2.1-2.785-5.9-.796-8.6-1.492-1.4-.398-1.4-2.287-1.4-3.381 0-1.393-.1-2.685-.3-4.078-.1-1.094 0-2.088.7-2.884.1-.1.9-.298.8-.298.4-.1.7-.1 1.1-.1 1.5-.099 4.6.2 4 2.487-.3.994 3.6.398 3.9-.597 1.2-4.575-7.3-3.68-9.7-3.083-2.2.597-4.6 1.79-4.8 4.376-.1 1.193.3 2.387.3 3.58.1 1.392-.2 2.785.3 4.077 1.1 2.984 5.5 1.591 7.8 1.691 3.8.298 2.7 5.47 2.7 7.856 0 1.293 1.2 3.382.2 4.476-.6.696-2 .696-2.8.795-.8.1-2.2.298-2.7-.497-1-1.392.1-3.78-.1-5.37-.1-.895-4.1-.1-3.9.994.3 2.586-1.4 6.066 2.4 6.564 2.4.298 5.2-.2 7.5-.895 1.2-.398 2.3-.895 3.2-1.79 1-.895.7-2.288.4-3.481-.5-3.083.9-6.464-1-8.95ZM61.32 18.597c-.1-3.78-.7-7.459-.7-11.238 0-1.989-4-1.293-4 .298 0 3.58.5 7.16.7 10.74v.2c-1.9 0-3.9.198-5.9.198.2-4.574-.6-9.149-.4-13.823 0-.596-3.9-.1-3.9.995-.2 4.475.6 8.85.5 13.326-.1 2.088-.2 4.276-.3 6.364 0 1.094.2 2.188.3 3.282.1.995.5 2.288.2 3.282-.2.796 3.6.298 3.9-.696.5-1.79-.2-3.978-.4-5.768-.2-1.69 0-3.48.1-5.171 2-.1 4.1-.299 6.1 0 .1 1.392.2 2.784.3 4.077.1 1.193.2 2.287.2 3.48 0 .995.1 2.487-.2 3.481-.8 2.089 3.1 1.89 3.7.398.7-1.89.5-4.177.4-6.166-.2-2.486-.6-4.873-.6-7.26ZM78.22 22.973c-.9-2.785-2.4-5.171-3.6-7.757 1-1.89 2-3.878 2.9-5.867.8-1.79 1.4-3.78 3.1-5.072.6-.398.6-.895-.3-.995-.9-.1-2.1.2-2.8.696-1.4 1.293-2.4 2.685-3.1 4.376-.9 2.089-1.9 4.077-2.9 6.066-.1.1-.1.299-.2.398-.5.299-.8.796-.6 1.293-.8 1.591-1.6 3.083-2.5 4.575-.3-5.47-1-11.04-1.2-16.509 0-1.293-4-.497-3.9.995.2 6.862 1.2 13.624 1.3 20.486v.1c-.3.298-.2.497.1.596 0 1.79-.1 3.48-.2 5.27-.5.697.5 1.095 1.1 1.095h.1c.7 0 2.6-.299 2.7-1.393.2-2.088.3-4.176.2-6.265 1.6-1.69 2.9-3.58 4.1-5.569.8 1.492 1.5 2.984 2 4.575.9 2.685 2.3 5.27 3.1 7.956.5 1.79 4.5.696 3.9-.995-1-2.784-2.4-5.27-3.3-8.055ZM101.721 18.398c-.2-.795-1.4-.795-2.3-.795v-.995c-.1-2.685-.2-5.37-.4-7.956-.2-2.486-1.6-3.281-4-3.182-2.4.1-5.2.497-7.5 1.392-2.6.995-4.1 2.884-4.6 5.669-.5 2.983.2 6.166.4 9.149.2 3.48.1 6.961.1 10.442 0 .597 3.9 0 3.9-.994v-8.255c0-.795-.1-1.59-.1-2.386 1.4-.597 3.7 0 5.1.1 1.1.099 2.2-.2 3.2-.3 0 2.288.1 4.575.2 6.863 0 1.193.5 3.48-.4 4.475-.4.497 1.5.298 1.6.298.8-.1 1.8-.398 2.3-.994.9-1.094.5-3.78.4-5.072-.1-1.89-.1-3.78-.1-5.669 1.1-.199 2.4-.895 2.2-1.79Zm-14.6-.1c-.1-1.192-.2-2.485-.3-3.679-.2-2.287.1-5.569 2.3-6.961.6-.398 1.7-.298 2.4-.398 1-.199 2-.398 2.8.199 1.2.796.9 3.68.9 4.873 0 1.989.2 3.978.3 5.967-.6.1-1.1.1-1.7.1-2.3-.2-4.6-.597-6.7-.1ZM24.22 6.663c.5-.1 1-.199 1.5-.497l.2-.2c.5-.297 1-.795.7-1.391-.5-1.094-.4-2.188-.4-3.382C26.22.2 25.22 0 24.42 0c-.7.1-2.2.597-2.2 1.492 0 .994-.1 1.989.1 2.983 0 .1-.1.199-.1.398-.1.199 0 .398.1.597v.397c.1.2.2.398.4.498.6.298 1.1.298 1.5.298Z"
        fill="currentColor" />
    </symbol>

    <symbol viewBox="0 0 28 18" id="vk-icon">
      <path d="M0.740967 2.43324C0.740967 1.57821 1.25607 1.11716 2.28628 1.0501L6.25612 1.07525C6.52255 1.07525 6.70017 1.20099 6.78898 1.45247C7.19751 2.70987 7.65489 3.79542 8.16111 4.70913C8.66733 5.62284 9.32897 6.67486 10.146 7.86519C10.2171 8.01608 10.3325 8.09152 10.4924 8.09152C10.6167 8.09152 10.7144 8.03285 10.7855 7.91549L10.8654 7.63886L10.892 3.28827C10.892 2.98649 10.8166 2.78531 10.6656 2.68472C10.5146 2.58413 10.2348 2.50868 9.82631 2.45839C9.50659 2.40809 9.34674 2.22367 9.34674 1.90513C9.34674 1.83807 9.35562 1.78778 9.37338 1.75425C9.74638 0.664502 10.8121 0.11963 12.5706 0.11963L14.0626 0.0944824C14.7376 0.0944824 15.2971 0.253753 15.7411 0.572293C16.1852 0.890834 16.4072 1.39379 16.4072 2.08117V7.78975C16.5315 7.87358 16.647 7.91549 16.7536 7.91549C17.02 7.91549 17.2509 7.7646 17.4463 7.46283C19.4001 4.88097 20.457 3.15415 20.6168 2.28235C20.6168 2.26559 20.6346 2.22367 20.6701 2.15661C20.7944 1.90513 20.9987 1.68718 21.2829 1.50277C21.5671 1.31835 21.8158 1.19261 22.0289 1.12555C22.1 1.09202 22.1799 1.07525 22.2687 1.07525H26.3984L26.6648 1.1004C27.0201 1.1004 27.2954 1.25967 27.4908 1.57821C27.5618 1.6788 27.6107 1.78778 27.6373 1.90513C27.664 2.02249 27.6817 2.13985 27.6906 2.2572C27.6995 2.37456 27.7039 2.44162 27.7039 2.45839V2.63442C27.5796 3.3218 27.2643 4.05528 26.7581 4.83487C26.2519 5.61445 25.608 6.45691 24.8265 7.36223C24.0449 8.26756 23.5565 8.86273 23.3611 9.14774C23.2012 9.34892 23.1213 9.53334 23.1213 9.70099C23.1213 9.83511 23.1923 9.986 23.3344 10.1537L27.2244 14.7809C27.4375 15.0491 27.5441 15.3425 27.5441 15.6611C27.5441 16.0467 27.3842 16.3652 27.0645 16.6167C26.7448 16.8682 26.3629 17.0107 25.9188 17.0442L25.4659 17.0693H21.4161C21.3984 17.0693 21.3628 17.0735 21.3096 17.0819C21.2563 17.0903 21.2207 17.0945 21.203 17.0945C20.8122 17.0945 20.4481 16.9352 20.1106 16.6167C19.9863 16.4825 19.1514 15.4934 17.6061 13.6492C17.5173 13.5319 17.393 13.4229 17.2331 13.3223C17.1621 13.5905 17.0688 13.9761 16.9534 14.4791C16.8379 14.9821 16.7536 15.3425 16.7003 15.5605L16.6203 15.988C16.4427 16.5748 16.0697 16.9268 15.5013 17.0442L15.1283 17.0693H12.5173C11.043 17.0693 9.5732 16.4323 8.10782 15.1581C6.64245 13.8839 5.3236 12.2367 4.1513 10.2165C2.979 8.19631 1.88663 5.84498 0.874183 3.16253C0.785372 2.94458 0.740967 2.70148 0.740967 2.43324ZM16.7536 8.94655C16.3806 8.94655 16.0431 8.85015 15.7411 8.65735C15.4392 8.46455 15.2882 8.2005 15.2882 7.86519V2.08117C15.2882 1.74586 15.1994 1.50696 15.0217 1.36445C14.8441 1.22195 14.5333 1.1507 14.0892 1.1507L12.5706 1.20099C11.8068 1.20099 11.2295 1.32673 10.8388 1.57821C11.6203 1.93028 12.0111 2.5003 12.0111 3.28827V7.7143C11.9755 8.13344 11.7979 8.48132 11.4782 8.75794C11.1585 9.03457 10.8032 9.17288 10.4125 9.17288C9.8796 9.17288 9.47107 8.92979 9.18688 8.44359C7.80143 6.46529 6.77122 4.58758 6.09626 2.81046L5.85647 2.15661L2.31292 2.13146C2.08201 2.13146 1.95323 2.14404 1.92659 2.16919C1.89995 2.19433 1.88663 2.26559 1.88663 2.38294C1.88663 2.53383 1.90439 2.6931 1.93991 2.86075L2.49942 4.26904C3.99144 7.90711 5.61224 10.774 7.36181 12.8696C9.11139 14.9653 10.8299 16.0131 12.5173 16.0131H15.1816C15.2882 16.0131 15.3681 15.9838 15.4214 15.9251C15.4747 15.8664 15.5191 15.7533 15.5546 15.5856L15.6079 15.3341L16.1141 13.1211C16.2562 12.8193 16.3806 12.6182 16.4871 12.5176C16.6825 12.3331 16.9134 12.2409 17.1798 12.2409C17.6061 12.2409 18.0413 12.484 18.4854 12.9702L20.75 15.6862C20.8921 15.9041 21.0431 16.0131 21.203 16.0131H25.5991C26.132 16.0131 26.3984 15.8874 26.3984 15.6359C26.3984 15.5521 26.3718 15.4683 26.3185 15.3844L22.4552 10.8326C22.1533 10.4806 22.0023 10.1034 22.0023 9.70099C22.0023 9.29862 22.1444 8.91302 22.4286 8.54419C22.6595 8.20888 23.108 7.65144 23.7741 6.87185C24.4401 6.09226 25.0218 5.36297 25.5192 4.68398C26.0165 4.00499 26.3451 3.38886 26.505 2.83561L26.5849 2.50868C26.5672 2.47515 26.5583 2.42067 26.5583 2.34522C26.5583 2.26978 26.5494 2.20691 26.5316 2.15661H22.3486C22.0822 2.2572 21.8691 2.40809 21.7092 2.60928L21.5493 3.08709C21.1053 4.24389 19.9419 6.02939 18.0591 8.44359C17.6861 8.7789 17.2509 8.94655 16.7536 8.94655Z" fill="currentColor"/>
    </symbol>

    <symbol viewBox="0 0 25 19" id="youtube-icon">
      <path d="M16.5921 8.79275L11.3558 5.30184C11.2572 5.23691 11.1428 5.19985 11.0249 5.19459C10.907 5.18934 10.7898 5.21608 10.6858 5.27198C10.5818 5.32789 10.4949 5.41087 10.4342 5.51215C10.3736 5.61343 10.3414 5.72924 10.3412 5.84729V12.8291C10.3413 12.9481 10.3739 13.0648 10.4354 13.1667C10.4969 13.2686 10.5851 13.3518 10.6903 13.4073C10.7937 13.4631 10.9103 13.4895 11.0276 13.4837C11.1449 13.478 11.2584 13.4402 11.3558 13.3746L16.5921 9.88366C16.6821 9.82395 16.756 9.7429 16.807 9.64772C16.8581 9.55255 16.8849 9.44621 16.8849 9.3382C16.8849 9.23019 16.8581 9.12385 16.807 9.02868C16.756 8.93351 16.6821 8.85245 16.5921 8.79275ZM11.6503 11.6073V7.06911L15.0539 9.3382L11.6503 11.6073ZM24.1303 3.04366C24.0354 2.67547 23.8543 2.33511 23.6021 2.05061C23.3498 1.76611 23.0336 1.54561 22.6794 1.40729C18.9594 -0.0217993 12.9921 1.91553e-05 12.7412 1.91553e-05C12.4903 1.91553e-05 6.52303 -0.0217993 2.80303 1.40729C2.44885 1.54561 2.13261 1.76611 1.88036 2.05061C1.6281 2.33511 1.44705 2.67547 1.35212 3.04366C1.06848 4.11275 0.741211 6.07638 0.741211 9.3382C0.741211 12.6 1.06848 14.5637 1.35212 15.6327C1.44705 16.0009 1.6281 16.3413 1.88036 16.6258C2.13261 16.9103 2.44885 17.1308 2.80303 17.2691C6.52303 18.6982 12.4903 18.6764 12.7412 18.6764H12.8176C13.5703 18.6764 19.1339 18.6327 22.6794 17.2691C23.0336 17.1308 23.3498 16.9103 23.6021 16.6258C23.8543 16.3413 24.0354 16.0009 24.1303 15.6327C24.4139 14.5637 24.7412 12.6 24.7412 9.3382C24.7412 6.07638 24.4139 4.11275 24.1303 3.04366ZM22.8648 15.3055C22.8219 15.472 22.7402 15.6259 22.6265 15.7548C22.5127 15.8838 22.3701 15.984 22.2103 16.0473C18.7194 17.3891 12.8067 17.3673 12.7412 17.3673C12.6758 17.3673 6.76303 17.3891 3.27212 16.0473C3.11228 15.984 2.96967 15.8838 2.85592 15.7548C2.74217 15.6259 2.6605 15.472 2.61757 15.3055C2.35576 14.3018 2.0503 12.4582 2.0503 9.3382C2.0503 6.2182 2.35576 4.37457 2.61757 3.37093C2.6605 3.20445 2.74217 3.05047 2.85592 2.92156C2.96967 2.79264 3.11228 2.69243 3.27212 2.62911C6.76303 1.28729 12.6758 1.30911 12.7412 1.30911C12.8067 1.30911 18.7194 1.28729 22.2103 2.62911C22.3701 2.69243 22.5127 2.79264 22.6265 2.92156C22.7402 3.05047 22.8219 3.20445 22.8648 3.37093C23.1267 4.37457 23.4321 6.2182 23.4321 9.3382C23.4321 12.4582 23.1267 14.3018 22.8648 15.3055Z"
      fill="currentColor"/>
    </symbol>

    <symbol viewBox="0 0 21 18" id="tg-icon">
      <path fill-rule="evenodd" clip-rule="evenodd" d="M20.202 0.152905C20.3805 0.302216 20.4667 0.534898 20.4284 0.764481L17.8023 16.5214C17.7656 16.7411 17.6201 16.9273 17.4157 17.0159C17.2112 17.1045 16.9759 17.0833 16.7905 16.9597L8.91203 11.7074C8.75892 11.6054 8.65568 11.4437 8.62745 11.2619C8.59922 11.08 8.64859 10.8947 8.76354 10.751L11.3742 7.48773L7.01424 10.3944C6.81821 10.525 6.56718 10.5407 6.35645 10.4353L1.10414 7.80915C0.868904 7.69153 0.726558 7.44488 0.742411 7.18235C0.758263 6.91983 0.929255 6.6921 1.17694 6.60364L19.56 0.0382579C19.7792 -0.0400244 20.0234 0.00359465 20.202 0.152905ZM3.06747 7.32275L6.60289 9.09046L14.1643 4.0495C14.4337 3.86994 14.7937 3.91349 15.0124 4.1521C15.2312 4.3907 15.2434 4.75314 15.0412 5.00591L10.2362 11.0121L16.674 15.3039L18.9496 1.65058L3.06747 7.32275Z"
      fill="currentColor"/>
    </symbol>

    <symbol viewBox="0 0 27 35" id="academy-logo">
      <path
        d="M13.6 0H13.5L0 1.4V26.1L13.5 34.1L26.9 26.1V1.4L13.6 0ZM25 12.1L13.5 5.3V5.2H13.4L13.3 5.1V5.2L1.9 12.1V3.1L13.4 1.9L25 3.1V12.1ZM13.4 6.8L24.9 13.5L20.4 16.1L13.3 11.9V13.3L19.2 16.8L18.3 17.3L13.3 14.3V15.7L17.1 18L16.3 18.5L13.3 16.7V18.1L15.2 19.2L13.4 20.3L2 13.6L13.4 6.8ZM1.9 15.1L13.3 21.9V22.9L5.4 18.2V19.6L13.4 24.4V25.5L5.4 20.8V22.2L13.4 27L21.5 22.1V16.9L24.9 14.9V24.9L13.4 31.8L1.9 25V15.1Z"
        fill="currentColor" />
    </symbol>
</svg>
