<svg width="768" height="18" viewBox="0 0 768 18" fill="none" xmlns="http://www.w3.org/2000/svg">
<path d="M772 17.5C765.958 17.5 762.803 14.1 760.252 11.3652C757.97 8.92609 756.292 7.15217 752.734 7.15217C749.109 7.15217 747.497 8.92609 745.215 11.3652C742.664 14.1 739.509 17.5 733.467 17.5C727.425 17.5 724.27 14.1 721.719 11.3652C719.437 8.92609 717.759 7.15217 714.201 7.15217C710.643 7.15217 708.964 8.92609 706.682 11.3652C704.131 14.1 700.976 17.5 694.934 17.5C688.892 17.5 685.737 14.1 683.186 11.3652C680.904 8.92609 679.226 7.15217 675.668 7.15217C672.043 7.15217 670.432 8.92609 668.149 11.3652C665.598 14.1 662.443 17.5 656.401 17.5C650.36 17.5 647.205 14.1 644.654 11.3652C642.371 8.92609 640.693 7.15217 637.135 7.15217C633.51 7.15217 631.899 8.92609 629.616 11.3652C626.797 14.1 623.642 17.5 617.6 17.5C611.558 17.5 608.403 14.1 605.852 11.3652C603.57 8.92609 601.891 7.15217 598.334 7.15217C594.708 7.15217 593.097 8.92609 590.815 11.3652C588.264 14.1 585.109 17.5 579.067 17.5C573.025 17.5 569.87 14.1 567.319 11.3652C565.037 8.92609 563.359 7.15217 559.801 7.15217C556.176 7.15217 554.565 8.92609 552.282 11.3652C549.597 14.1 546.442 17.5 540.4 17.5C534.358 17.5 531.203 14.1 528.652 11.3652C526.37 8.92609 524.691 7.15217 521.134 7.15217C517.508 7.15217 515.897 8.92609 513.615 11.3652C511.064 14.1 507.909 17.5 501.867 17.5C495.825 17.5 492.67 14.1 490.119 11.3652C487.837 8.92609 486.159 7.15217 482.601 7.15217C479.043 7.15217 477.365 8.92609 475.082 11.3652C472.464 14.1 469.242 17.5 463.2 17.5C457.158 17.5 454.003 14.1 451.452 11.3652C449.17 8.92609 447.491 7.15217 443.934 7.15217C440.309 7.15217 438.697 8.92609 436.415 11.3652C433.864 14.1 430.709 17.5 424.667 17.5C418.625 17.5 415.47 14.1 412.919 11.3652C410.637 8.92609 408.959 7.15217 405.401 7.15217C401.776 7.15217 400.165 8.92609 397.882 11.3652C395.331 14.1 392.176 17.5 386.134 17.5C380.093 17.5 376.937 14.1 374.386 11.3652C372.104 8.92609 370.426 7.15217 366.868 7.15217C363.31 7.15217 361.632 8.92609 359.349 11.3652C356.798 14.1 353.643 17.5 347.601 17.5C341.56 17.5 338.405 14.1 335.854 11.3652C333.571 8.92609 331.893 7.15217 328.335 7.15217C324.71 7.15217 323.099 8.92609 320.816 11.3652C318.265 14.1 315.11 17.5 309.069 17.5C303.027 17.5 299.872 14.1 297.321 11.3652C295.038 8.92609 293.36 7.15217 289.802 7.15217C286.177 7.15217 284.566 8.92609 282.283 11.3652C279.733 14.1 276.577 17.5 270.536 17.5C264.494 17.5 261.339 14.1 258.788 11.3652C256.505 8.92609 254.827 7.15217 251.269 7.15217C247.644 7.15217 246.033 8.92609 243.751 11.3652C241.2 14.1 238.045 17.5 232.003 17.5C225.961 17.5 222.806 14.1 220.255 11.3652C217.973 8.92609 216.294 7.15217 212.736 7.15217C209.178 7.15217 207.5 8.92609 205.218 11.3652C202.667 14.1 199.512 17.5 193.47 17.5C187.428 17.5 184.273 14.1 181.722 11.3652C179.44 8.92609 177.761 7.15217 174.203 7.15217C170.578 7.15217 168.967 8.92609 166.685 11.3652C164.134 14.1 160.979 17.5 154.937 17.5C148.895 17.5 145.74 14.1 143.189 11.3652C140.907 8.92609 139.229 7.15217 135.671 7.15217C132.046 7.15217 130.434 8.92609 128.152 11.3652C125.601 14.1 122.446 17.5 116.404 17.5C110.362 17.5 107.207 14.1 104.656 11.3652C102.374 8.92609 100.696 7.15217 97.1377 7.15217C93.5127 7.15217 91.9016 8.92609 89.6191 11.3652C86.464 14.1 83.2417 17.5 77.2 17.5C71.1583 17.5 68.0031 14.1 65.4522 11.3652C63.1697 8.92609 61.4915 7.15217 57.9336 7.15217C54.3085 7.15217 52.6974 8.92609 50.415 11.3652C47.864 14.1 44.7089 17.5 38.6671 17.5C32.6254 17.5 29.4703 14.1 26.9193 11.3652C24.5697 8.92609 22.8915 7.15217 19.3336 7.15217C15.7085 7.15217 14.0974 8.92609 11.815 11.3652C9.19687 14.1 6.04174 17.5 0 17.5V10.8478C3.62504 10.8478 5.23617 9.07391 7.51861 6.63478C10.0696 3.9 13.2247 0.5 19.3336 0.5C25.3753 0.5 28.5304 3.9 31.0814 6.63478C33.3638 9.07391 35.0421 10.8478 38.6 10.8478C42.225 10.8478 43.8362 9.07391 46.1186 6.63478C48.6696 3.9 51.8918 0.5 57.9336 0.5C63.9753 0.5 67.1304 3.9 69.6814 6.63478C71.9638 9.07391 73.6421 10.8478 77.2 10.8478C80.825 10.8478 82.4362 9.07391 84.7186 6.63478C87.2696 3.9 90.4247 0.5 96.4664 0.5C102.508 0.5 105.663 3.9 108.214 6.63478C110.497 9.07391 112.175 10.8478 115.733 10.8478C119.358 10.8478 120.969 9.07391 123.251 6.63478C125.802 3.9 128.958 0.5 134.999 0.5C141.041 0.5 144.196 3.9 146.747 6.63478C149.03 9.07391 150.708 10.8478 154.266 10.8478C157.891 10.8478 159.502 9.07391 161.784 6.63478C164.335 3.9 167.49 0.5 173.532 0.5C179.574 0.5 182.729 3.9 185.28 6.63478C187.562 9.07391 189.241 10.8478 192.799 10.8478C196.424 10.8478 198.035 9.07391 200.317 6.63478C202.868 3.9 206.023 0.5 212.065 0.5C218.107 0.5 221.262 3.9 223.813 6.63478C226.095 9.07391 227.774 10.8478 231.331 10.8478C234.957 10.8478 236.568 9.07391 238.85 6.63478C241.401 3.9 244.556 0.5 250.598 0.5C256.64 0.5 259.795 3.9 262.346 6.63478C264.628 9.07391 266.306 10.8478 269.864 10.8478C273.422 10.8478 275.101 9.07391 277.383 6.63478C279.934 3.9 283.089 0.5 289.131 0.5C295.173 0.5 298.328 3.9 300.879 6.63478C303.161 9.07391 304.839 10.8478 308.397 10.8478C312.022 10.8478 313.633 9.07391 315.916 6.63478C318.467 3.9 321.622 0.5 327.664 0.5C333.705 0.5 336.861 3.9 339.411 6.63478C341.694 9.07391 343.372 10.8478 346.93 10.8478C350.555 10.8478 352.166 9.07391 354.449 6.63478C357 3.9 360.155 0.5 366.197 0.5C372.238 0.5 375.393 3.9 377.944 6.63478C380.227 9.07391 381.905 10.8478 385.463 10.8478C389.088 10.8478 390.699 9.07391 392.982 6.63478C395.533 3.9 398.688 0.5 404.729 0.5C410.771 0.5 413.926 3.9 416.477 6.63478C418.76 9.07391 420.438 10.8478 423.996 10.8478C427.621 10.8478 429.232 9.07391 431.514 6.63478C434.065 3.9 437.221 0.5 443.262 0.5C449.304 0.5 452.459 3.9 455.01 6.63478C457.293 9.07391 458.971 10.8478 462.529 10.8478C466.154 10.8478 467.765 9.07391 470.047 6.63478C472.598 3.9 475.753 0.5 481.795 0.5C487.837 0.5 490.992 3.9 493.543 6.63478C495.825 9.07391 497.504 10.8478 501.062 10.8478C504.687 10.8478 506.298 9.07391 508.58 6.63478C511.131 3.9 514.286 0.5 520.328 0.5C526.37 0.5 529.525 3.9 532.076 6.63478C534.358 9.07391 536.036 10.8478 539.594 10.8478C543.219 10.8478 544.831 9.07391 547.113 6.63478C550.47 3.9 553.625 0.5 559.734 0.5C565.775 0.5 568.93 3.9 571.481 6.63478C573.764 9.07391 575.442 10.8478 579 10.8478C582.558 10.8478 584.236 9.07391 586.519 6.63478C589.07 3.9 592.225 0.5 598.266 0.5C604.308 0.5 607.463 3.9 610.014 6.63478C612.297 9.07391 613.975 10.8478 617.533 10.8478C621.091 10.8478 622.769 9.07391 625.051 6.63478C627.67 3.9 630.825 0.5 636.934 0.5C643.042 0.5 646.13 3.9 648.681 6.63478C650.964 9.07391 652.642 10.8478 656.2 10.8478C659.758 10.8478 661.436 9.07391 663.719 6.63478C666.27 3.9 669.425 0.5 675.466 0.5C681.508 0.5 684.663 3.9 687.214 6.63478C689.497 9.07391 691.175 10.8478 694.733 10.8478C698.358 10.8478 699.969 9.07391 702.251 6.63478C704.802 3.9 707.958 0.5 713.999 0.5C720.041 0.5 723.196 3.9 725.747 6.63478C728.03 9.07391 729.708 10.8478 733.266 10.8478C736.824 10.8478 738.502 9.07391 740.784 6.63478C743.335 3.9 746.49 0.5 752.532 0.5C758.574 0.5 761.729 3.9 764.28 6.63478C766.562 9.07391 768.241 10.8478 771.799 10.8478V17.5H772Z" fill="#F1F1F1"/>
</svg>
